<svg xmlns="http://www.w3.org/2000/svg" width="16" height="16" fill="currentColor" viewBox="0 0 256 256">
  <path d="M237.66,178.34a8,8,0,0,1,0,11.32l-24,24a8,8,0,0,1-11.32-11.32L212.69,192H200.94a72.12,72.12,0,0,1-58.59-30.15l-41.72-58.4A56.1,56.1,0,0,0,54.94,72H32a8,8,0,0,1,0-16H54.94a72.12,72.12,0,0,1,58.59,30.15l41.72,58.4A56.1,56.1,0,0,0,200.94,176h11.75l-10.35-10.34a8,8,0,0,1,11.32-11.32ZM143,107a8,8,0,0,0,11.16-1.86l1.2-1.67A56.1,56.1,0,0,1,200.94,72h11.75L202.34,82.34a8,8,0,0,0,11.32,11.32l24-24a8,8,0,0,0,0-11.32l-24-24a8,8,0,0,0-11.32,11.32L212.69,56H200.94a72.12,72.12,0,0,0-58.59,30.15l-1.2,1.67A8,8,0,0,0,143,107Zm-30,42a8,8,0,0,0-11.16,1.86l-1.2,1.67A56.1,56.1,0,0,1,54.94,184H32a8,8,0,0,0,0,16H54.94a72.12,72.12,0,0,0,58.59-30.15l1.2-1.67A8,8,0,0,0,113,149Z"/>
</svg>
